<mxfile
  host="Electron" 
  agent="Mozilla/5.0 (Macintosh; Intel Mac OS X 10_15_7) AppleWebKit/537.36 (KHTML, like Gecko) draw.io/25.0.2 Chrome/128.0.6613.186 Electron/32.2.5 Safari/537.36" 
  version="25.0.2"
  >
  <diagram
    name="web-app"
    >
    <mxGraphModel
      grid="1" 
      gridSize="10" 
      guides="1" 
      tooltips="1" 
      connect="1" 
      arrows="1" 
      fold="1" 
      page="1" 
      pageScale="1" 
      pageWidth="1" 
      pageHeight="1" 
      math="0" 
      shadow="0"
      >
      <root>
        <mxCell
          id="page"
          />
        <mxCell
          id="root" 
          parent="page"
          />
        <mxCell
          style="align=center;strokeColor=none;verticalAlign=top;aspect=fixed" 
          id="app" 
          parent="root" 
          value="Web App" 
          vertex="1"
          >
          <mxGeometry
            as="geometry" 
            width="480" 
            height="360" 
            x="0" 
            y="0"
            />
          </mxCell>
        <mxCell
          style="shape=mxgraph.aws4.client;fillColor=#000000;verticalLabelPosition=bottom;verticalAlign=top;align=center;aspect=fixed" 
          id="client" 
          parent="app" 
          value="Client" 
          vertex="1"
          >
          <mxGeometry
            as="geometry" 
            width="60" 
            height="60" 
            x="30" 
            y="90"
            />
          </mxCell>
        <mxCell
          style="shape=mxgraph.aws4.group;align=left;spacingLeft=30;verticalAlign=top;aspect=fixed;grIcon=mxgraph.aws4.group_aws_cloud_alt" 
          id="aws_cloud_cloud" 
          parent="app" 
          value="Cloud" 
          vertex="1"
          >
          <mxGeometry
            as="geometry" 
            width="330" 
            height="300" 
            x="120" 
            y="30"
            />
          </mxCell>
        <mxCell
          style="shape=mxgraph.aws4.group;align=left;spacingLeft=30;verticalAlign=top;aspect=fixed;grIcon=mxgraph.aws4.group_region;strokeColor=#00A4A6;fontColor=#00A4A6;noLabel=1;opacity=0" 
          id="aws_region_region" 
          parent="aws_cloud_cloud" 
          value="Region" 
          vertex="1"
          >
          <mxGeometry
            as="geometry" 
            width="270" 
            height="240" 
            x="30" 
            y="30"
            />
          </mxCell>
        <mxCell
          style="shape=mxgraph.aws4.group;align=left;spacingLeft=30;verticalAlign=top;aspect=fixed;grIcon=mxgraph.aws4.group_vpc2;strokeColor=#8C4FFF;fontColor=#8C4FFF;noLabel=1;opacity=0" 
          id="vpcid1" 
          parent="aws_region_region" 
          value="Vpc" 
          vertex="1"
          >
          <mxGeometry
            as="geometry" 
            width="270" 
            height="240" 
            x="0" 
            y="0"
            />
          </mxCell>
        <mxCell
          style="shape=mxgraph.aws4.group;align=left;spacingLeft=30;verticalAlign=top;aspect=fixed;grIcon=mxgraph.aws4.group_security_group;fillColor=#F2F6E8;strokeWidth=0;strokeColor=#7AA116;fontColor=#7AA116" 
          id="aws_subnet_publicsubnet" 
          parent="vpcid1" 
          value="Public Subnet" 
          vertex="1"
          >
          <mxGeometry
            as="geometry" 
            width="120" 
            height="240" 
            x="0" 
            y="0"
            />
          </mxCell>
        <mxCell
          style="shape=mxgraph.aws4.application_load_balancer;fillColor=#8C4FFF;verticalLabelPosition=bottom;verticalAlign=top;align=center;aspect=fixed;strokeColor=#8C4FFF;fontColor=#8C4FFF" 
          id="aws_lb_loadbalancer" 
          parent="aws_subnet_publicsubnet" 
          value="Load Balancer" 
          vertex="1"
          >
          <mxGeometry
            as="geometry" 
            width="60" 
            height="60" 
            x="30" 
            y="30"
            />
          </mxCell>
        <mxCell
          style="shape=mxgraph.aws4.waf;fillColor=#8C4FFF;verticalLabelPosition=bottom;verticalAlign=top;align=center;aspect=fixed;strokeColor=#8C4FFF;fontColor=#8C4FFF" 
          id="firewall" 
          parent="aws_subnet_publicsubnet" 
          value="Firewall" 
          vertex="1"
          >
          <mxGeometry
            as="geometry" 
            width="60" 
            height="60" 
            x="30" 
            y="150"
            />
          </mxCell>
        <mxCell
          style="shape=mxgraph.aws4.group;align=left;spacingLeft=30;verticalAlign=top;aspect=fixed;grIcon=mxgraph.aws4.group_security_group;fillColor=#E6F6F7;strokeWidth=0;strokeColor=#00A4A6;fontColor=#00A4A6" 
          id="aws_subnet_privatesubnet" 
          parent="vpcid1" 
          value="Private Subnet" 
          vertex="1"
          >
          <mxGeometry
            as="geometry" 
            width="120" 
            height="240" 
            x="150" 
            y="0"
            />
          </mxCell>
        <mxCell
          style="shape=mxgraph.aws3.android;fillColor=#AE1F23;verticalLabelPosition=bottom;verticalAlign=top;align=center;aspect=fixed;strokeColor=#AE1F23;fontColor=#AE1F23" 
          id="aws_instance_application" 
          parent="aws_subnet_privatesubnet" 
          value="Application" 
          vertex="1"
          >
          <mxGeometry
            as="geometry" 
            width="60" 
            height="60" 
            x="30" 
            y="30"
            />
          </mxCell>
        <mxCell
          style="shape=mxgraph.aws4.rds_postgresql_instance;fillColor=#C925D1;verticalLabelPosition=bottom;verticalAlign=top;align=center;aspect=fixed;strokeColor=#C925D1;fontColor=#C925D1" 
          id="aws_db_instance_postgres" 
          parent="aws_subnet_privatesubnet" 
          value="Postgres" 
          vertex="1"
          >
          <mxGeometry
            as="geometry" 
            width="60" 
            height="60" 
            x="30" 
            y="150"
            />
          </mxCell>
        <mxCell
          id="dependency" 
          source="aws_lb_loadbalancer" 
          target="firewall" 
          parent="root" 
          edge="1" 
          style="edgeStyle=orthogonalEdgeStyle;rounded=1;orthogonalLoop=1;jettySize=auto;html=1"
          >
          <mxGeometry
            relative="1" 
            as="geometry"
            >
            <Array
              as="points"
              >
              <mxPoint
                x="210" 
                y="180"
                />
              <mxPoint
                x="210" 
                y="180"
                />
              </Array>
            </mxGeometry>
          </mxCell>
        <mxCell
          id="dependency_2" 
          source="aws_lb_loadbalancer" 
          target="aws_instance_application" 
          parent="root" 
          edge="1" 
          style="edgeStyle=orthogonalEdgeStyle;rounded=1;orthogonalLoop=1;jettySize=auto;html=1"
          >
          <mxGeometry
            relative="1" 
            as="geometry"
            >
            <Array
              as="points"
              >
              <mxPoint
                x="285" 
                y="120"
                />
              <mxPoint
                x="285" 
                y="120"
                />
              </Array>
            </mxGeometry>
          </mxCell>
        <mxCell
          id="dependency_3" 
          source="client" 
          target="aws_lb_loadbalancer" 
          parent="root" 
          edge="1" 
          style="edgeStyle=orthogonalEdgeStyle;rounded=1;orthogonalLoop=1;jettySize=auto;html=1"
          >
          <mxGeometry
            relative="1" 
            as="geometry"
            >
            <Array
              as="points"
              >
              <mxPoint
                x="135" 
                y="120"
                />
              <mxPoint
                x="135" 
                y="120"
                />
              </Array>
            </mxGeometry>
          </mxCell>
        <mxCell
          id="dependency_4" 
          source="aws_instance_application" 
          target="aws_db_instance_postgres" 
          parent="root" 
          edge="1" 
          style="edgeStyle=orthogonalEdgeStyle;rounded=1;orthogonalLoop=1;jettySize=auto;html=1"
          >
          <mxGeometry
            relative="1" 
            as="geometry"
            >
            <Array
              as="points"
              >
              <mxPoint
                x="360" 
                y="180"
                />
              <mxPoint
                x="360" 
                y="180"
                />
              </Array>
            </mxGeometry>
          </mxCell>
        </root>
      </mxGraphModel>
    </diagram>
  </mxfile>